<?xml version="1.0" encoding="UTF-8"?>
<svg xmlns="http://www.w3.org/2000/svg" viewBox="0 0 900 340" width="900" height="340" role="img" aria-label="Virtual history versus physical prompt over a 3h15 session">
<style>
.g{stroke:#16303d;stroke-width:1}
.ax{fill:#5d7787;font:11px ui-monospace,SFMono-Regular,Menlo,Consolas,monospace}
.lv{fill:none;stroke:#ff2bd6;stroke-width:2}
.lp{fill:none;stroke:#29f0ff;stroke-width:1.6}
.win{stroke:#ffd84a;stroke-dasharray:5 5;stroke-width:1.2}
.winl{fill:#ffd84a;font:11px ui-monospace,SFMono-Regular,Menlo,Consolas,monospace}
.sw{stroke:#ffffff44;stroke-dasharray:2 4}
.swl{fill:#9fb3c0;font:10px ui-monospace,SFMono-Regular,Menlo,Consolas,monospace}
.lab{font:13px ui-monospace,SFMono-Regular,Menlo,Consolas,monospace}
.lab.v{fill:#ff2bd6}
.lab.p{fill:#29f0ff}
</style>
<rect width="900" height="340" fill="#05070c"/>
<defs><linearGradient id="gv" x1="0" y1="0" x2="0" y2="1"><stop offset="0" stop-color="#ff2bd6" stop-opacity=".35"/><stop offset="1" stop-color="#ff2bd6" stop-opacity="0"/></linearGradient>
<linearGradient id="gp" x1="0" y1="0" x2="0" y2="1"><stop offset="0" stop-color="#29f0ff" stop-opacity=".45"/><stop offset="1" stop-color="#29f0ff" stop-opacity="0"/></linearGradient></defs>
<line x1="58" x2="880" y1="300.0" y2="300.0" class="g"/><text x="50" y="304.0" class="ax" text-anchor="end">0K</text><line x1="58" x2="880" y1="239.1" y2="239.1" class="g"/><text x="50" y="243.1" class="ax" text-anchor="end">100K</text><line x1="58" x2="880" y1="178.3" y2="178.3" class="g"/><text x="50" y="182.3" class="ax" text-anchor="end">200K</text><line x1="58" x2="880" y1="117.4" y2="117.4" class="g"/><text x="50" y="121.4" class="ax" text-anchor="end">300K</text><line x1="58" x2="880" y1="56.5" y2="56.5" class="g"/><text x="50" y="60.5" class="ax" text-anchor="end">400K</text><text x="58.0" y="324" class="ax" text-anchor="middle">0h</text><text x="310.9" y="324" class="ax" text-anchor="middle">1h</text><text x="563.8" y="324" class="ax" text-anchor="middle">2h</text><text x="816.8" y="324" class="ax" text-anchor="middle">3h</text><text x="880.0" y="324" class="ax" text-anchor="end">3h15</text><line x1="354.8" x2="354.8" y1="20" y2="300.0" class="sw"/><text x="359.8" y="32" class="swl">segment 1 · ~2 min</text><line x1="586.2" x2="586.2" y1="20" y2="300.0" class="sw"/><text x="591.2" y="32" class="swl">segment 2 · ~2 min</text><path d="M58.0,284.6 L59.7,284.4 L60.1,284.4 L60.5,283.7 L61.0,283.5 L61.4,283.3 L62.2,283.1 L74.9,282.9 L75.7,277.1 L85.0,277.0 L85.8,271.7 L88.4,271.5 L93.0,270.5 L96.8,268.3 L97.2,266.3 L104.4,265.4 L104.8,262.0 L105.2,261.8 L109.8,261.0 L112.0,258.6 L114.1,257.6 L117.4,256.5 L117.9,255.0 L118.3,255.0 L118.3,254.8 L118.7,254.7 L119.1,254.4 L119.5,254.3 L120.0,254.0 L120.0,253.8 L120.4,253.7 L121.2,253.5 L121.7,253.5 L122.1,253.2 L123.3,253.0 L127.1,252.3 L138.9,250.4 L139.8,244.4 L140.6,244.0 L141.0,243.7 L142.3,243.1 L148.2,242.6 L153.3,239.4 L154.1,237.5 L155.0,237.2 L156.6,236.7 L157.1,236.1 L157.5,236.0 L157.5,235.8 L160.0,235.0 L160.4,234.0 L160.9,233.7 L161.7,233.5 L162.1,233.1 L163.4,233.0 L163.8,232.4 L164.2,232.2 L165.1,231.8 L165.5,231.5 L165.9,231.2 L166.3,230.6 L167.6,228.9 L168.4,228.4 L168.9,227.2 L169.7,226.3 L171.0,226.1 L171.4,225.2 L171.8,225.1 L173.5,224.0 L173.9,223.2 L175.2,222.6 L175.6,222.0 L177.3,221.4 L177.7,220.6 L179.8,220.0 L180.2,219.1 L182.4,218.8 L183.2,217.8 L183.6,217.6 L184.0,217.3 L185.7,217.1 L187.4,216.4 L188.3,215.6 L189.1,215.2 L190.4,214.9 L191.2,214.6 L191.6,214.2 L194.6,213.7 L195.0,212.3 L195.8,212.0 L196.3,211.4 L196.7,211.3 L197.5,211.0 L197.5,210.7 L198.0,210.3 L199.2,209.7 L199.6,208.9 L200.5,208.6 L201.7,208.1 L201.7,207.7 L202.6,207.4 L204.7,207.1 L205.1,206.2 L205.5,205.8 L206.0,204.9 L206.8,204.6 L207.6,203.9 L208.1,203.6 L208.9,203.2 L209.3,202.9 L210.2,202.4 L213.1,202.2 L214.0,200.8 L214.0,200.6 L214.8,199.9 L215.2,199.7 L215.7,199.4 L216.1,199.0 L218.2,198.5 L218.6,197.4 L219.0,197.3 L219.4,197.1 L219.9,196.8 L220.3,196.6 L220.7,196.5 L223.2,195.9 L224.1,194.6 L224.5,194.2 L224.5,194.1 L225.4,193.8 L227.5,193.2 L227.5,192.9 L227.9,192.6 L228.3,192.4 L228.7,192.2 L229.6,192.0 L230.0,191.6 L230.8,191.4 L231.7,191.0 L232.1,190.8 L232.5,190.5 L232.9,190.2 L234.2,190.0 L235.0,189.3 L236.3,188.5 L238.8,187.8 L240.1,186.7 L240.9,186.2 L241.4,185.8 L242.2,185.3 L243.1,184.7 L243.5,184.4 L243.9,184.0 L244.3,183.9 L244.7,183.7 L245.2,183.6 L246.0,183.3 L246.4,182.9 L246.8,182.7 L247.7,182.3 L248.1,182.1 L248.5,181.8 L249.8,181.6 L250.2,181.1 L250.6,180.9 L251.1,180.8 L251.5,180.5 L251.9,180.3 L251.9,180.1 L252.8,180.0 L253.2,179.6 L253.6,179.5 L255.3,179.3 L256.1,178.6 L256.5,178.3 L284.8,178.0 L286.1,178.0 L303.3,177.2 L304.2,177.2 L305.4,176.6 L306.3,176.6 L307.1,176.6 L308.0,175.6 L342.5,175.1 L343.0,173.8 L343.8,173.6 L344.2,173.4 L344.6,173.1 L344.6,172.9 L345.1,170.6 L347.6,166.5 L356.0,163.7 L356.4,162.0 L356.9,160.9 L356.9,159.1 L363.6,157.4 L364.0,157.4 L364.5,153.6 L364.5,152.4 L369.5,151.3 L369.9,148.8 L370.4,148.6 L371.6,148.4 L372.0,147.7 L379.6,147.5 L381.3,143.9 L381.7,143.1 L382.6,142.4 L383.4,141.8 L383.8,141.4 L384.3,141.2 L385.5,141.1 L386.4,140.3 L386.8,139.9 L387.2,139.9 L387.2,139.7 L387.6,139.5 L387.6,139.3 L392.7,138.8 L394.0,136.4 L397.3,135.6 L397.8,134.0 L398.2,133.0 L400.3,132.5 L400.7,131.6 L402.8,131.3 L403.2,130.2 L404.1,129.8 L409.1,129.4 L409.6,126.9 L410.8,126.4 L411.2,125.8 L411.7,125.4 L412.5,125.2 L412.9,124.8 L415.9,124.5 L415.9,123.1 L420.1,122.9 L420.9,121.1 L421.8,120.8 L422.2,120.3 L428.1,120.0 L429.0,117.2 L429.4,116.9 L430.2,116.4 L430.6,116.4 L432.3,116.0 L432.7,115.8 L433.6,115.4 L434.0,114.1 L434.4,113.4 L437.8,112.3 L438.2,110.7 L439.1,110.1 L439.9,109.5 L440.8,109.0 L441.2,108.7 L441.6,108.5 L442.0,108.3 L443.3,107.4 L443.7,106.5 L444.6,105.7 L445.0,105.3 L445.4,104.9 L449.6,104.6 L450.5,102.2 L452.1,101.9 L452.6,101.0 L453.0,100.8 L453.4,100.6 L453.4,100.3 L453.8,100.0 L454.2,99.8 L455.9,99.2 L456.4,98.8 L457.2,98.5 L457.6,98.0 L458.0,97.8 L458.5,97.6 L459.7,97.2 L459.7,96.7 L460.6,96.4 L461.0,95.8 L461.4,95.6 L463.5,95.3 L465.6,94.2 L466.0,93.3 L467.7,92.7 L468.2,91.7 L469.0,91.5 L469.0,91.4 L469.4,91.1 L469.8,91.0 L470.3,90.7 L471.5,90.2 L472.0,89.6 L472.8,89.4 L473.2,89.2 L474.1,88.6 L474.5,88.1 L474.9,87.9 L475.7,87.8 L476.2,87.5 L477.0,86.8 L480.0,86.3 L480.4,85.0 L481.2,84.8 L482.1,84.4 L482.1,84.2 L483.3,83.8 L484.6,83.3 L486.3,82.7 L486.7,81.9 L486.7,81.7 L487.5,81.5 L488.0,81.1 L489.2,80.5 L489.2,80.5 L489.7,80.0 L490.1,80.0 L491.3,78.8 L492.2,78.2 L492.6,77.7 L493.0,77.4 L493.4,77.2 L494.3,76.5 L495.1,76.0 L495.1,75.8 L495.6,75.7 L495.6,75.6 L498.5,73.8 L500.2,72.6 L502.3,71.9 L502.7,71.0 L504.0,70.5 L504.0,70.5 L504.8,70.1 L504.8,69.8 L505.7,69.6 L506.1,69.2 L506.1,69.1 L508.6,68.9 L509.5,67.9 L509.9,67.5 L536.4,67.3 L536.9,67.0 L537.3,66.4 L537.7,66.0 L539.0,65.3 L539.8,64.8 L540.2,64.7 L540.2,64.5 L541.1,64.3 L541.9,64.0 L542.3,63.7 L542.8,63.5 L542.8,63.3 L543.6,63.1 L544.0,62.9 L545.3,62.5 L545.7,62.0 L546.1,61.9 L546.6,61.7 L547.4,61.3 L548.7,61.0 L553.3,60.6 L554.2,60.1 L556.7,59.8 L558.4,59.0 L558.8,58.2 L559.6,58.1 L559.6,57.8 L561.3,57.5 L576.1,56.9 L587.0,54.5 L589.1,53.9 L591.7,53.5 L593.8,52.9 L594.2,52.1 L596.3,52.0 L597.1,51.5 L597.6,51.2 L602.6,50.9 L603.5,50.0 L603.9,49.7 L608.5,49.3 L609.8,48.8 L610.6,48.3 L612.7,47.5 L613.2,46.5 L613.6,46.3 L614.0,46.0 L617.4,45.5 L617.8,44.3 L620.3,43.7 L621.6,43.0 L622.4,41.9 L622.9,41.0 L624.1,40.4 L626.2,39.9 L626.7,38.6 L627.1,38.3 L627.9,38.0 L628.8,37.7 L629.2,37.5 L631.3,37.2 L631.3,36.9 L631.7,35.7 L632.1,35.2 L635.1,34.7 L635.9,33.5 L636.4,33.2 L636.4,33.2 L636.8,32.9 L636.8,32.9 L638.9,32.8 L639.3,31.9 L639.3,31.9 L640.1,31.2 L773.4,30.9 L773.8,30.9 L774.2,30.9 L775.5,30.9 L775.9,30.9 L778.4,30.9 L785.2,28.8 L786.4,28.8 L788.1,28.1 L879.2,27.3 L880.0,27.1 L880.0,300.0 L58.0,300.0 Z" fill="url(#gv)"/><path d="M58.0,284.6 L59.7,284.4 L60.1,284.4 L60.5,283.7 L61.0,283.5 L61.4,283.3 L62.2,283.1 L74.9,282.9 L75.7,277.1 L85.0,277.0 L85.8,271.7 L88.4,271.5 L93.0,270.5 L96.8,268.3 L97.2,266.3 L104.4,265.4 L104.8,262.0 L105.2,261.8 L109.8,261.0 L112.0,258.6 L114.1,257.6 L117.4,256.5 L117.9,255.0 L118.3,255.0 L118.3,254.8 L118.7,254.7 L119.1,254.4 L119.5,254.3 L120.0,254.0 L120.0,253.8 L120.4,253.7 L121.2,253.5 L121.7,253.5 L122.1,253.2 L123.3,253.0 L127.1,252.3 L138.9,250.4 L139.8,244.4 L140.6,244.0 L141.0,243.7 L142.3,243.1 L148.2,242.6 L153.3,239.4 L154.1,237.5 L155.0,237.2 L156.6,236.7 L157.1,236.1 L157.5,236.0 L157.5,235.8 L160.0,235.0 L160.4,234.0 L160.9,233.7 L161.7,233.5 L162.1,233.1 L163.4,233.0 L163.8,232.4 L164.2,232.2 L165.1,231.8 L165.5,231.5 L165.9,231.2 L166.3,230.6 L167.6,228.9 L168.4,228.4 L168.9,227.2 L169.7,226.3 L171.0,226.1 L171.4,225.2 L171.8,225.1 L173.5,224.0 L173.9,223.2 L175.2,222.6 L175.6,222.0 L177.3,221.4 L177.7,220.6 L179.8,220.0 L180.2,219.1 L182.4,218.8 L183.2,217.8 L183.6,217.6 L184.0,217.3 L185.7,217.1 L187.4,216.4 L188.3,215.6 L189.1,215.2 L190.4,214.9 L191.2,214.6 L191.6,214.2 L194.6,213.7 L195.0,212.3 L195.8,212.0 L196.3,211.4 L196.7,211.3 L197.5,211.0 L197.5,210.7 L198.0,210.3 L199.2,209.7 L199.6,208.9 L200.5,208.6 L201.7,208.1 L201.7,207.7 L202.6,207.4 L204.7,207.1 L205.1,206.2 L205.5,205.8 L206.0,204.9 L206.8,204.6 L207.6,203.9 L208.1,203.6 L208.9,203.2 L209.3,202.9 L210.2,202.4 L213.1,202.2 L214.0,200.8 L214.0,200.6 L214.8,199.9 L215.2,199.7 L215.7,199.4 L216.1,199.0 L218.2,198.5 L218.6,197.4 L219.0,197.3 L219.4,197.1 L219.9,196.8 L220.3,196.6 L220.7,196.5 L223.2,195.9 L224.1,194.6 L224.5,194.2 L224.5,194.1 L225.4,193.8 L227.5,193.2 L227.5,192.9 L227.9,192.6 L228.3,192.4 L228.7,192.2 L229.6,192.0 L230.0,191.6 L230.8,191.4 L231.7,191.0 L232.1,190.8 L232.5,190.5 L232.9,190.2 L234.2,190.0 L235.0,189.3 L236.3,188.5 L238.8,187.8 L240.1,186.7 L240.9,186.2 L241.4,185.8 L242.2,185.3 L243.1,184.7 L243.5,184.4 L243.9,184.0 L244.3,183.9 L244.7,183.7 L245.2,183.6 L246.0,183.3 L246.4,182.9 L246.8,182.7 L247.7,182.3 L248.1,182.1 L248.5,181.8 L249.8,181.6 L250.2,181.1 L250.6,180.9 L251.1,180.8 L251.5,180.5 L251.9,180.3 L251.9,180.1 L252.8,180.0 L253.2,179.6 L253.6,179.5 L255.3,179.3 L256.1,178.6 L256.5,178.3 L284.8,178.0 L286.1,178.0 L303.3,177.2 L304.2,177.2 L305.4,176.6 L306.3,176.6 L307.1,176.6 L308.0,175.6 L342.5,175.1 L343.0,173.8 L343.8,173.6 L344.2,173.4 L344.6,173.1 L344.6,172.9 L345.1,170.6 L347.6,166.5 L356.0,163.7 L356.4,162.0 L356.9,160.9 L356.9,159.1 L363.6,157.4 L364.0,157.4 L364.5,153.6 L364.5,152.4 L369.5,151.3 L369.9,148.8 L370.4,148.6 L371.6,148.4 L372.0,147.7 L379.6,147.5 L381.3,143.9 L381.7,143.1 L382.6,142.4 L383.4,141.8 L383.8,141.4 L384.3,141.2 L385.5,141.1 L386.4,140.3 L386.8,139.9 L387.2,139.9 L387.2,139.7 L387.6,139.5 L387.6,139.3 L392.7,138.8 L394.0,136.4 L397.3,135.6 L397.8,134.0 L398.2,133.0 L400.3,132.5 L400.7,131.6 L402.8,131.3 L403.2,130.2 L404.1,129.8 L409.1,129.4 L409.6,126.9 L410.8,126.4 L411.2,125.8 L411.7,125.4 L412.5,125.2 L412.9,124.8 L415.9,124.5 L415.9,123.1 L420.1,122.9 L420.9,121.1 L421.8,120.8 L422.2,120.3 L428.1,120.0 L429.0,117.2 L429.4,116.9 L430.2,116.4 L430.6,116.4 L432.3,116.0 L432.7,115.8 L433.6,115.4 L434.0,114.1 L434.4,113.4 L437.8,112.3 L438.2,110.7 L439.1,110.1 L439.9,109.5 L440.8,109.0 L441.2,108.7 L441.6,108.5 L442.0,108.3 L443.3,107.4 L443.7,106.5 L444.6,105.7 L445.0,105.3 L445.4,104.9 L449.6,104.6 L450.5,102.2 L452.1,101.9 L452.6,101.0 L453.0,100.8 L453.4,100.6 L453.4,100.3 L453.8,100.0 L454.2,99.8 L455.9,99.2 L456.4,98.8 L457.2,98.5 L457.6,98.0 L458.0,97.8 L458.5,97.6 L459.7,97.2 L459.7,96.7 L460.6,96.4 L461.0,95.8 L461.4,95.6 L463.5,95.3 L465.6,94.2 L466.0,93.3 L467.7,92.7 L468.2,91.7 L469.0,91.5 L469.0,91.4 L469.4,91.1 L469.8,91.0 L470.3,90.7 L471.5,90.2 L472.0,89.6 L472.8,89.4 L473.2,89.2 L474.1,88.6 L474.5,88.1 L474.9,87.9 L475.7,87.8 L476.2,87.5 L477.0,86.8 L480.0,86.3 L480.4,85.0 L481.2,84.8 L482.1,84.4 L482.1,84.2 L483.3,83.8 L484.6,83.3 L486.3,82.7 L486.7,81.9 L486.7,81.7 L487.5,81.5 L488.0,81.1 L489.2,80.5 L489.2,80.5 L489.7,80.0 L490.1,80.0 L491.3,78.8 L492.2,78.2 L492.6,77.7 L493.0,77.4 L493.4,77.2 L494.3,76.5 L495.1,76.0 L495.1,75.8 L495.6,75.7 L495.6,75.6 L498.5,73.8 L500.2,72.6 L502.3,71.9 L502.7,71.0 L504.0,70.5 L504.0,70.5 L504.8,70.1 L504.8,69.8 L505.7,69.6 L506.1,69.2 L506.1,69.1 L508.6,68.9 L509.5,67.9 L509.9,67.5 L536.4,67.3 L536.9,67.0 L537.3,66.4 L537.7,66.0 L539.0,65.3 L539.8,64.8 L540.2,64.7 L540.2,64.5 L541.1,64.3 L541.9,64.0 L542.3,63.7 L542.8,63.5 L542.8,63.3 L543.6,63.1 L544.0,62.9 L545.3,62.5 L545.7,62.0 L546.1,61.9 L546.6,61.7 L547.4,61.3 L548.7,61.0 L553.3,60.6 L554.2,60.1 L556.7,59.8 L558.4,59.0 L558.8,58.2 L559.6,58.1 L559.6,57.8 L561.3,57.5 L576.1,56.9 L587.0,54.5 L589.1,53.9 L591.7,53.5 L593.8,52.9 L594.2,52.1 L596.3,52.0 L597.1,51.5 L597.6,51.2 L602.6,50.9 L603.5,50.0 L603.9,49.7 L608.5,49.3 L609.8,48.8 L610.6,48.3 L612.7,47.5 L613.2,46.5 L613.6,46.3 L614.0,46.0 L617.4,45.5 L617.8,44.3 L620.3,43.7 L621.6,43.0 L622.4,41.9 L622.9,41.0 L624.1,40.4 L626.2,39.9 L626.7,38.6 L627.1,38.3 L627.9,38.0 L628.8,37.7 L629.2,37.5 L631.3,37.2 L631.3,36.9 L631.7,35.7 L632.1,35.2 L635.1,34.7 L635.9,33.5 L636.4,33.2 L636.4,33.2 L636.8,32.9 L636.8,32.9 L638.9,32.8 L639.3,31.9 L639.3,31.9 L640.1,31.2 L773.4,30.9 L773.8,30.9 L774.2,30.9 L775.5,30.9 L775.9,30.9 L778.4,30.9 L785.2,28.8 L786.4,28.8 L788.1,28.1 L879.2,27.3 L880.0,27.1" class="lv"/><line x1="58" x2="880" y1="220.2" y2="220.2" class="win"/><text x="876" y="214.2" class="winl" text-anchor="end">model window · 128K</text><path d="M58.0,296.1 L59.7,296.0 L60.1,295.0 L60.5,294.8 L61.0,294.6 L61.4,294.4 L62.2,294.1 L74.9,294.0 L75.7,288.2 L85.0,288.0 L85.8,282.8 L88.4,282.5 L93.0,281.5 L96.8,279.3 L97.2,277.3 L104.4,276.4 L104.8,273.0 L105.2,272.8 L109.8,272.0 L112.0,269.7 L114.1,268.7 L117.4,267.6 L117.9,266.0 L118.3,265.5 L118.3,265.4 L118.7,265.2 L119.1,265.0 L119.5,264.9 L120.0,264.6 L120.0,264.4 L120.4,264.3 L121.2,264.1 L121.7,263.8 L122.1,263.6 L123.3,263.4 L127.1,262.7 L138.9,260.8 L139.8,254.9 L140.6,254.5 L141.0,254.2 L142.3,253.6 L148.2,253.1 L153.3,275.7 L154.1,273.8 L155.0,273.5 L156.6,273.0 L157.1,272.5 L157.5,272.3 L157.5,272.1 L160.0,271.3 L160.4,270.3 L160.9,270.0 L161.7,269.8 L162.1,269.4 L163.4,269.3 L163.8,268.8 L164.2,268.5 L165.1,268.1 L165.5,267.8 L165.9,267.6 L166.3,266.9 L167.6,265.3 L168.4,264.8 L168.9,263.5 L169.7,262.7 L171.0,262.4 L171.4,261.5 L171.8,261.4 L173.5,260.3 L173.9,259.5 L175.2,259.0 L175.6,258.3 L177.3,257.7 L177.7,256.9 L179.8,256.3 L180.2,255.5 L182.4,255.2 L183.2,254.1 L183.6,253.9 L184.0,253.6 L185.7,253.5 L187.4,252.7 L188.3,251.9 L189.1,251.5 L190.4,272.6 L191.2,272.3 L191.6,271.9 L194.6,271.5 L195.0,270.1 L195.8,269.8 L196.3,269.2 L196.7,269.1 L197.5,268.8 L197.5,268.5 L198.0,268.1 L199.2,267.5 L199.6,266.7 L200.5,266.4 L201.7,265.9 L201.7,265.5 L202.6,265.2 L204.7,264.8 L205.1,264.0 L205.5,263.5 L206.0,262.7 L206.8,262.4 L207.6,261.7 L208.1,261.4 L208.9,261.0 L209.3,260.7 L210.2,260.2 L213.1,260.0 L214.0,258.6 L214.0,258.4 L214.8,257.7 L215.2,257.5 L215.7,257.2 L216.1,256.8 L218.2,256.3 L218.6,255.2 L219.0,255.0 L219.4,254.8 L219.9,254.6 L220.3,254.4 L220.7,254.3 L223.2,253.7 L224.1,252.4 L224.5,252.0 L224.5,251.9 L225.4,251.5 L227.5,264.7 L227.5,264.4 L227.9,264.1 L228.3,263.9 L228.7,263.8 L229.6,263.5 L230.0,263.1 L230.8,262.2 L231.7,261.7 L232.1,261.5 L232.5,259.7 L232.9,259.4 L234.2,258.5 L235.0,257.8 L236.3,257.0 L238.8,256.3 L240.1,255.2 L240.9,254.7 L241.4,254.3 L242.2,253.8 L243.1,253.1 L243.5,252.9 L243.9,252.5 L244.3,252.3 L244.7,252.2 L245.2,251.4 L246.0,250.5 L246.4,250.1 L246.8,249.8 L247.7,249.5 L248.1,249.2 L248.5,249.0 L249.8,248.8 L250.2,248.3 L250.6,248.0 L251.1,247.9 L251.5,247.6 L251.9,247.4 L251.9,247.2 L252.8,247.1 L253.2,246.7 L253.6,246.6 L255.3,246.5 L256.1,245.7 L256.5,245.4 L284.8,244.7 L286.1,243.7 L303.3,252.4 L304.2,250.5 L305.4,250.1 L306.3,248.3 L307.1,247.8 L308.0,247.4 L342.5,245.6 L343.0,244.3 L343.8,244.1 L344.2,243.8 L344.6,243.6 L344.6,243.4 L345.1,241.1 L347.6,237.0 L356.0,279.2 L356.4,277.6 L356.9,276.4 L356.9,274.7 L363.6,272.9 L364.0,269.5 L364.5,268.5 L364.5,267.3 L369.5,266.3 L369.9,263.8 L370.4,263.6 L371.6,263.3 L372.0,262.7 L379.6,262.4 L381.3,258.8 L381.7,258.0 L382.6,257.4 L383.4,256.8 L383.8,256.4 L384.3,256.2 L385.5,256.1 L386.4,255.2 L386.8,254.9 L387.2,254.3 L387.2,254.2 L387.6,254.0 L387.6,253.8 L392.7,253.3 L394.0,271.9 L397.3,271.1 L397.8,269.5 L398.2,268.6 L400.3,268.1 L400.7,267.1 L402.8,266.8 L403.2,265.7 L404.1,265.3 L409.1,265.0 L409.6,262.4 L410.8,261.9 L411.2,261.3 L411.7,261.0 L412.5,260.7 L412.9,260.3 L415.9,260.0 L415.9,258.7 L420.1,258.5 L420.9,256.6 L421.8,256.3 L422.2,255.9 L428.1,255.5 L429.0,252.7 L429.4,252.4 L430.2,251.9 L430.6,251.4 L432.3,267.7 L432.7,267.5 L433.6,267.1 L434.0,265.8 L434.4,265.1 L437.8,264.0 L438.2,262.4 L439.1,261.8 L439.9,261.2 L440.8,260.8 L441.2,260.5 L441.6,260.2 L442.0,260.0 L443.3,259.1 L443.7,258.2 L444.6,257.4 L445.0,257.0 L445.4,256.6 L449.6,256.3 L450.5,253.9 L452.1,253.6 L452.6,252.7 L453.0,252.5 L453.4,252.3 L453.4,252.1 L453.8,251.7 L454.2,251.5 L455.9,263.2 L456.4,262.8 L457.2,262.5 L457.6,262.0 L458.0,261.8 L458.5,261.6 L459.7,261.2 L459.7,260.7 L460.6,260.4 L461.0,259.8 L461.4,259.6 L463.5,259.3 L465.6,258.2 L466.0,257.3 L467.7,256.7 L468.2,255.7 L469.0,255.5 L469.0,255.4 L469.4,255.1 L469.8,255.0 L470.3,254.7 L471.5,254.2 L472.0,253.6 L472.8,253.4 L473.2,253.2 L474.1,252.6 L474.5,252.1 L474.9,251.9 L475.7,251.8 L476.2,251.5 L477.0,250.8 L480.0,250.3 L480.4,249.0 L481.2,248.8 L482.1,248.4 L482.1,248.2 L483.3,247.8 L484.6,257.4 L486.3,256.8 L486.7,256.0 L486.7,255.8 L487.5,255.7 L488.0,255.2 L489.2,254.6 L489.2,254.1 L489.7,254.1 L490.1,253.9 L491.3,252.6 L492.2,252.1 L492.6,251.5 L493.0,251.2 L493.4,251.1 L494.3,250.3 L495.1,249.9 L495.1,249.7 L495.6,249.6 L495.6,249.5 L498.5,247.6 L500.2,246.5 L502.3,245.8 L502.7,244.9 L504.0,244.4 L504.0,244.0 L504.8,243.9 L504.8,243.5 L505.7,243.3 L506.1,243.0 L506.1,242.9 L508.6,242.7 L509.5,241.1 L509.9,240.2 L536.4,250.3 L536.9,250.0 L537.3,247.7 L537.7,247.2 L539.0,246.6 L539.8,246.1 L540.2,245.9 L540.2,245.8 L541.1,245.5 L541.9,245.3 L542.3,245.0 L542.8,244.8 L542.8,244.6 L543.6,244.4 L544.0,244.2 L545.3,243.7 L545.7,243.3 L546.1,243.2 L546.6,243.0 L547.4,242.6 L548.7,242.3 L553.3,240.9 L554.2,240.5 L556.7,239.4 L558.4,238.6 L558.8,237.9 L559.6,237.7 L559.6,237.4 L561.3,237.1 L576.1,236.0 L587.0,284.3 L589.1,283.7 L591.7,283.2 L593.8,282.7 L594.2,281.9 L596.3,281.8 L597.1,281.2 L597.6,281.0 L602.6,280.6 L603.5,279.8 L603.9,279.5 L608.5,279.1 L609.8,278.6 L610.6,278.1 L612.7,277.2 L613.2,276.3 L613.6,276.1 L614.0,275.8 L617.4,275.3 L617.8,274.0 L620.3,273.5 L621.6,272.8 L622.4,271.7 L622.9,270.8 L624.1,270.1 L626.2,269.6 L626.7,268.4 L627.1,268.1 L627.9,267.8 L628.8,267.5 L629.2,267.3 L631.3,267.0 L631.3,266.7 L631.7,265.5 L632.1,264.9 L635.1,264.5 L635.9,263.3 L636.4,262.9 L636.4,262.5 L636.8,262.3 L636.8,262.2 L638.9,262.1 L639.3,260.7 L639.3,260.5 L640.1,259.9 L773.4,258.6 L773.8,255.7 L774.2,254.4 L775.5,250.6 L775.9,249.1 L778.4,248.9 L785.2,265.1 L786.4,261.4 L788.1,260.8 L879.2,258.8 L880.0,258.5 L880.0,300.0 L58.0,300.0 Z" fill="url(#gp)"/><path d="M58.0,296.1 L59.7,296.0 L60.1,295.0 L60.5,294.8 L61.0,294.6 L61.4,294.4 L62.2,294.1 L74.9,294.0 L75.7,288.2 L85.0,288.0 L85.8,282.8 L88.4,282.5 L93.0,281.5 L96.8,279.3 L97.2,277.3 L104.4,276.4 L104.8,273.0 L105.2,272.8 L109.8,272.0 L112.0,269.7 L114.1,268.7 L117.4,267.6 L117.9,266.0 L118.3,265.5 L118.3,265.4 L118.7,265.2 L119.1,265.0 L119.5,264.9 L120.0,264.6 L120.0,264.4 L120.4,264.3 L121.2,264.1 L121.7,263.8 L122.1,263.6 L123.3,263.4 L127.1,262.7 L138.9,260.8 L139.8,254.9 L140.6,254.5 L141.0,254.2 L142.3,253.6 L148.2,253.1 L153.3,275.7 L154.1,273.8 L155.0,273.5 L156.6,273.0 L157.1,272.5 L157.5,272.3 L157.5,272.1 L160.0,271.3 L160.4,270.3 L160.9,270.0 L161.7,269.8 L162.1,269.4 L163.4,269.3 L163.8,268.8 L164.2,268.5 L165.1,268.1 L165.5,267.8 L165.9,267.6 L166.3,266.9 L167.6,265.3 L168.4,264.8 L168.9,263.5 L169.7,262.7 L171.0,262.4 L171.4,261.5 L171.8,261.4 L173.5,260.3 L173.9,259.5 L175.2,259.0 L175.6,258.3 L177.3,257.7 L177.7,256.9 L179.8,256.3 L180.2,255.5 L182.4,255.2 L183.2,254.1 L183.6,253.9 L184.0,253.6 L185.7,253.5 L187.4,252.7 L188.3,251.9 L189.1,251.5 L190.4,272.6 L191.2,272.3 L191.6,271.9 L194.6,271.5 L195.0,270.1 L195.8,269.8 L196.3,269.2 L196.7,269.1 L197.5,268.8 L197.5,268.5 L198.0,268.1 L199.2,267.5 L199.6,266.7 L200.5,266.4 L201.7,265.9 L201.7,265.5 L202.6,265.2 L204.7,264.8 L205.1,264.0 L205.5,263.5 L206.0,262.7 L206.8,262.4 L207.6,261.7 L208.1,261.4 L208.9,261.0 L209.3,260.7 L210.2,260.2 L213.1,260.0 L214.0,258.6 L214.0,258.4 L214.8,257.7 L215.2,257.5 L215.7,257.2 L216.1,256.8 L218.2,256.3 L218.6,255.2 L219.0,255.0 L219.4,254.8 L219.9,254.6 L220.3,254.4 L220.7,254.3 L223.2,253.7 L224.1,252.4 L224.5,252.0 L224.5,251.9 L225.4,251.5 L227.5,264.7 L227.5,264.4 L227.9,264.1 L228.3,263.9 L228.7,263.8 L229.6,263.5 L230.0,263.1 L230.8,262.2 L231.7,261.7 L232.1,261.5 L232.5,259.7 L232.9,259.4 L234.2,258.5 L235.0,257.8 L236.3,257.0 L238.8,256.3 L240.1,255.2 L240.9,254.7 L241.4,254.3 L242.2,253.8 L243.1,253.1 L243.5,252.9 L243.9,252.5 L244.3,252.3 L244.7,252.2 L245.2,251.4 L246.0,250.5 L246.4,250.1 L246.8,249.8 L247.7,249.5 L248.1,249.2 L248.5,249.0 L249.8,248.8 L250.2,248.3 L250.6,248.0 L251.1,247.9 L251.5,247.6 L251.9,247.4 L251.9,247.2 L252.8,247.1 L253.2,246.7 L253.6,246.6 L255.3,246.5 L256.1,245.7 L256.5,245.4 L284.8,244.7 L286.1,243.7 L303.3,252.4 L304.2,250.5 L305.4,250.1 L306.3,248.3 L307.1,247.8 L308.0,247.4 L342.5,245.6 L343.0,244.3 L343.8,244.1 L344.2,243.8 L344.6,243.6 L344.6,243.4 L345.1,241.1 L347.6,237.0 L356.0,279.2 L356.4,277.6 L356.9,276.4 L356.9,274.7 L363.6,272.9 L364.0,269.5 L364.5,268.5 L364.5,267.3 L369.5,266.3 L369.9,263.8 L370.4,263.6 L371.6,263.3 L372.0,262.7 L379.6,262.4 L381.3,258.8 L381.7,258.0 L382.6,257.4 L383.4,256.8 L383.8,256.4 L384.3,256.2 L385.5,256.1 L386.4,255.2 L386.8,254.9 L387.2,254.3 L387.2,254.2 L387.6,254.0 L387.6,253.8 L392.7,253.3 L394.0,271.9 L397.3,271.1 L397.8,269.5 L398.2,268.6 L400.3,268.1 L400.7,267.1 L402.8,266.8 L403.2,265.7 L404.1,265.3 L409.1,265.0 L409.6,262.4 L410.8,261.9 L411.2,261.3 L411.7,261.0 L412.5,260.7 L412.9,260.3 L415.9,260.0 L415.9,258.7 L420.1,258.5 L420.9,256.6 L421.8,256.3 L422.2,255.9 L428.1,255.5 L429.0,252.7 L429.4,252.4 L430.2,251.9 L430.6,251.4 L432.3,267.7 L432.7,267.5 L433.6,267.1 L434.0,265.8 L434.4,265.1 L437.8,264.0 L438.2,262.4 L439.1,261.8 L439.9,261.2 L440.8,260.8 L441.2,260.5 L441.6,260.2 L442.0,260.0 L443.3,259.1 L443.7,258.2 L444.6,257.4 L445.0,257.0 L445.4,256.6 L449.6,256.3 L450.5,253.9 L452.1,253.6 L452.6,252.7 L453.0,252.5 L453.4,252.3 L453.4,252.1 L453.8,251.7 L454.2,251.5 L455.9,263.2 L456.4,262.8 L457.2,262.5 L457.6,262.0 L458.0,261.8 L458.5,261.6 L459.7,261.2 L459.7,260.7 L460.6,260.4 L461.0,259.8 L461.4,259.6 L463.5,259.3 L465.6,258.2 L466.0,257.3 L467.7,256.7 L468.2,255.7 L469.0,255.5 L469.0,255.4 L469.4,255.1 L469.8,255.0 L470.3,254.7 L471.5,254.2 L472.0,253.6 L472.8,253.4 L473.2,253.2 L474.1,252.6 L474.5,252.1 L474.9,251.9 L475.7,251.8 L476.2,251.5 L477.0,250.8 L480.0,250.3 L480.4,249.0 L481.2,248.8 L482.1,248.4 L482.1,248.2 L483.3,247.8 L484.6,257.4 L486.3,256.8 L486.7,256.0 L486.7,255.8 L487.5,255.7 L488.0,255.2 L489.2,254.6 L489.2,254.1 L489.7,254.1 L490.1,253.9 L491.3,252.6 L492.2,252.1 L492.6,251.5 L493.0,251.2 L493.4,251.1 L494.3,250.3 L495.1,249.9 L495.1,249.7 L495.6,249.6 L495.6,249.5 L498.5,247.6 L500.2,246.5 L502.3,245.8 L502.7,244.9 L504.0,244.4 L504.0,244.0 L504.8,243.9 L504.8,243.5 L505.7,243.3 L506.1,243.0 L506.1,242.9 L508.6,242.7 L509.5,241.1 L509.9,240.2 L536.4,250.3 L536.9,250.0 L537.3,247.7 L537.7,247.2 L539.0,246.6 L539.8,246.1 L540.2,245.9 L540.2,245.8 L541.1,245.5 L541.9,245.3 L542.3,245.0 L542.8,244.8 L542.8,244.6 L543.6,244.4 L544.0,244.2 L545.3,243.7 L545.7,243.3 L546.1,243.2 L546.6,243.0 L547.4,242.6 L548.7,242.3 L553.3,240.9 L554.2,240.5 L556.7,239.4 L558.4,238.6 L558.8,237.9 L559.6,237.7 L559.6,237.4 L561.3,237.1 L576.1,236.0 L587.0,284.3 L589.1,283.7 L591.7,283.2 L593.8,282.7 L594.2,281.9 L596.3,281.8 L597.1,281.2 L597.6,281.0 L602.6,280.6 L603.5,279.8 L603.9,279.5 L608.5,279.1 L609.8,278.6 L610.6,278.1 L612.7,277.2 L613.2,276.3 L613.6,276.1 L614.0,275.8 L617.4,275.3 L617.8,274.0 L620.3,273.5 L621.6,272.8 L622.4,271.7 L622.9,270.8 L624.1,270.1 L626.2,269.6 L626.7,268.4 L627.1,268.1 L627.9,267.8 L628.8,267.5 L629.2,267.3 L631.3,267.0 L631.3,266.7 L631.7,265.5 L632.1,264.9 L635.1,264.5 L635.9,263.3 L636.4,262.9 L636.4,262.5 L636.8,262.3 L636.8,262.2 L638.9,262.1 L639.3,260.7 L639.3,260.5 L640.1,259.9 L773.4,258.6 L773.8,255.7 L774.2,254.4 L775.5,250.6 L775.9,249.1 L778.4,248.9 L785.2,265.1 L786.4,261.4 L788.1,260.8 L879.2,258.8 L880.0,258.5" class="lp"/>
<text x="874.0" y="19.1" class="lab v" text-anchor="end">448K archived &amp; recallable</text>
<text x="690.3" y="206.0" class="lab p" text-anchor="middle">what the model sees · peak 105K</text>
</svg>
